<svg id="Capa_1" enable-background="new 0 0 508 508" height="512" viewBox="0 0 508 508" width="512" xmlns="http://www.w3.org/2000/svg"><g><path d="m498 80.61v10.39c0 15.21-9.81 28.67-24.29 33.32l-23.87 7.68-90.45 79.3-24.18 138.1c-3.99 22.78-4.67 46.01-2.01 68.97l4.23 36.63h-24.07c-15.68 0-30-9.12-36.41-23.43-9.27-20.69-14.57-42.74-15.89-64.99-1.87 8.22-3.31 16.54-4.3 24.92l-7.51 63.5h-24.81c-15.43 0-29.44-8.89-36.12-22.8-5.27 13.35-18.28 22.8-33.5 22.8h-89.98c-18.08 0-34.29-11.07-40.94-27.88-8.97-22.63-13.9-47.3-13.9-73.12 0-26.87 8.15-51.84 22.12-72.56l33.07-48.48c22.28-32.65 53.91-57.79 90.74-72.13l33.31-12.96 17.85-20.46c15.19-17.42 37.17-27.41 60.28-27.41h13.75c15.14 0 29.96-4.29 42.75-12.38l23.13-14.62c0-11.05 8.95-20 20-20 3.94 0 7.62 1.14 10.72 3.11 6.42-2.04 13.17-3.11 19.98-3.11h42.44c10.83 0 21.22 4.32 28.86 12l21.66 5.97c4.34 1.2 7.34 5.15 7.34 9.64z" fill="#fff"/><path d="m493.318 61.335-19.253-5.312c-9.249-8.306-21.46-13.023-33.925-13.023h-42.438c-6.407 0-12.769.826-18.973 2.432-18.665-7.561-37.633 3.955-41.149 21.696l-19.05 12.042c-11.211 7.08-24.14 10.83-37.41 10.83h-13.75c-26.011 0-50.721 11.24-67.82 30.83l-16.23 18.609-31.01 12.07c-40.277 15.264-73.955 44.103-95.38 75.82l-33.1 48.52c-15.601 23.13-23.83 50.151-23.83 78.151 0 10.25.749 20.55 2.229 30.609.641 4.358 4.803 9.294 11.351 8.44 5.464-.712 9.239-5.9 8.439-11.35-1.339-9.099-2.019-18.42-2.019-27.699 0-24 7.06-47.16 20.41-66.971.01-.01 33.04-48.43 33.04-48.43 21.229-31.109 51-54.78 86.109-68.45l33.3-12.96c1.521-.59 2.841-1.52 3.91-2.75l17.851-20.46c13.3-15.239 32.529-23.979 52.75-23.979h13.75c17.05 0 33.68-4.82 48.1-13.931l12.069-7.631c5.253 8.718 14.812 14.562 25.711 14.562 5.522 0 10-4.478 10-10s-4.478-10-10-10c-5.514 0-10-4.486-10-10s4.486-10 10-10c4.137 0 7.898 2.598 9.36 6.465 1.954 5.165 7.724 7.77 12.891 5.816 4.964-1.878 7.55-7.278 6.012-12.281h44.876c8.114 0 16.049 3.299 21.77 9.052 1.228 1.233 2.755 2.126 4.432 2.588l21.659 5.975v10.389c0 10.9-6.972 20.465-17.348 23.8l-23.874 7.676c-1.302.419-2.504 1.1-3.531 2.001l-152.774 133.935c-1.221 1.069-2.162 2.42-2.743 3.934l-26.007 67.71c-7.441 19.373-12.452 39.648-14.892 60.264l-6.47 54.676h-15.926c-11.465 0-22.104-6.723-27.106-17.127-32.329-67.258-18.58-147.918 34.214-200.711 3.905-3.905 3.905-10.237 0-14.143-3.906-3.904-10.236-3.904-14.143 0-24.041 24.041-40.806 53.273-49.77 84.551-4.79-9.24-10.88-17.429-18.137-24.171-15.381-14.289-34.677-21.008-55.83-19.435-5.507.41-9.64 5.208-9.229 10.716s5.196 9.626 10.716 9.229c15.455-1.15 29.533 3.739 40.731 14.143 15.347 14.256 24.143 37.234 24.124 63.043.003.001.005.003.008.003-.053 14.669 1.539 29.397 4.821 43.901h-31.834c-5.522 0-10 4.478-10 10s4.478 10 10 10h37.486c1.974 5.779 4.236 11.498 6.778 17.14-4.612 7.923-13.043 12.86-22.414 12.86h-90.01c-4.425 0-6.312-.771-8.2-.771-4.79 0-8.92 3.42-9.81 8.141-1.03 5.42 2.55 10.659 7.96 11.689 3.31.62 6.689.94 10.05.94h89.979c9.421-.01 22.826-2.968 33.987-15 9.288 9.4 22.108 15 35.629 15h24.813c5.068 0 9.335-3.792 9.931-8.825l3.822-32.301c1.478 3.971 3.081 7.902 4.822 11.787 7.983 17.824 25.857 29.341 45.535 29.341h24.076c6.856 0 10.485-5.968 9.934-11.148l-4.236-36.63c-2.547-22.019-1.899-44.256 1.925-66.093l23.576-134.637 86.241-75.606 21.9-7.041c18.677-6.005 31.226-23.221 31.226-42.841v-10.389c0-8.968-6.037-16.896-14.682-19.28zm-459.649 365.21c0 5.525-4.479 10.005-10.005 10.005s-10.005-4.479-10.005-10.005c0-5.525 4.479-10.005 10.005-10.005s10.005 4.479 10.005 10.005zm291.686-78.865c-4.155 23.735-4.859 47.906-2.091 71.84l2.946 25.48h-12.853c-11.809 0-22.518-6.875-27.284-17.515-8.509-18.996-13.523-39.187-14.932-60.035 3.083-18.547 34.371-95.623 34.371-95.623l39.131-34.306z"/></g></svg>