<?xml version="1.0" encoding="iso-8859-1"?>
<!-- Generator: Adobe Illustrator 19.0.0, SVG Export Plug-In . SVG Version: 6.00 Build 0)  -->
<svg version="1.1" id="Layer_1" xmlns="http://www.w3.org/2000/svg" xmlns:xlink="http://www.w3.org/1999/xlink" x="0px" y="0px"
	 viewBox="0 0 512.002 512.002" style="enable-background:new 0 0 512.002 512.002;" xml:space="preserve">
<g>
	<g>
		<path d="M504.008,169.627l-13.835,7.379c2.336,4.381,4.046,9.078,5.081,13.963l15.338-3.25
			C509.252,181.393,507.036,175.307,504.008,169.627z"/>
	</g>
</g>
<g>
	<g>
		<path d="M496.345,204.947c-0.654,12.312-5.602,24.077-13.932,33.133l-34.755,36.552l-39.557-33.855
			c-21.13-19.884-22.319-53.373-2.627-74.733c9.542-10.352,22.514-16.339,36.522-16.858c13.99-0.524,27.359,4.485,37.627,14.089
			l10.71-11.451c-13.343-12.48-30.721-18.976-48.918-18.307c-18.215,0.674-35.074,8.452-47.471,21.899
			c-25.547,27.711-23.947,71.192,3.566,96.925l51.255,43.877l45.053-47.381l0.081-0.088c10.825-11.74,17.252-27.001,18.101-42.971
			L496.345,204.947z"/>
	</g>
</g>
<g>
	<g>
		<path d="M468.611,175.074c-14.491-13.455-37.228-12.613-50.684,1.877c-13.456,14.492-12.613,37.227,1.877,50.684
			c6.893,6.4,15.652,9.565,24.39,9.565c9.631,0,19.238-3.846,26.294-11.443C483.944,211.266,483.102,188.53,468.611,175.074z
			 M458.999,215.088c-7.572,8.156-20.369,8.631-28.525,1.057c-8.156-7.573-8.63-20.369-1.057-28.525
			c3.971-4.277,9.376-6.441,14.798-6.441c4.919,0,9.848,1.782,13.727,5.383C466.098,194.136,466.572,206.933,458.999,215.088z"/>
	</g>
</g>
<g>
	<g>
		<rect x="112.094" y="109.273" width="15.679" height="16.013"/>
	</g>
</g>
<g>
	<g>
		<polygon points="464.058,117.281 464.058,2.071 344.124,44.904 232.028,4.871 119.934,44.904 0,2.071 0,467.098 119.934,509.931 
			232.028,469.898 344.124,509.931 464.058,467.098 464.058,309.445 448.379,309.445 448.379,456.049 351.963,490.483 
			351.963,85.256 336.284,85.256 336.284,490.483 232.028,453.249 127.774,490.483 127.774,141.304 112.095,141.304 
			112.095,490.483 15.679,456.048 15.679,24.319 112.095,58.753 112.095,93.262 127.774,93.262 127.774,58.753 224.189,24.319 
			224.189,437.553 239.867,437.553 239.867,24.319 344.124,61.553 448.379,24.319 448.379,117.281 		"/>
	</g>
</g>
<g>
	<g>
		<polygon points="77.437,347.015 66.35,335.929 55.88,346.398 45.41,335.929 34.323,347.015 44.794,357.485 34.323,367.956 
			45.41,379.043 55.88,368.574 66.35,379.043 77.437,367.956 66.967,357.485 		"/>
	</g>
</g>
<g>
	<g>
		<rect x="336.114" y="309.607" width="16.013" height="15.679"/>
	</g>
</g>
<g>
	<g>
		<rect x="304.087" y="309.607" width="16.013" height="15.679"/>
	</g>
</g>
<g>
	<g>
		<rect x="304.087" y="197.513" width="16.013" height="15.679"/>
	</g>
</g>
<g>
	<g>
		<rect x="143.953" y="197.513" width="16.013" height="15.679"/>
	</g>
</g>
<g>
	<g>
		<rect x="143.953" y="269.574" width="16.013" height="15.679"/>
	</g>
</g>
<g>
	<g>
		<rect x="256.047" y="197.513" width="32.028" height="15.679"/>
	</g>
</g>
<g>
	<g>
		<rect x="408.174" y="309.607" width="24.023" height="15.679"/>
	</g>
</g>
<g>
	<g>
		<rect x="368.141" y="309.607" width="24.021" height="15.679"/>
	</g>
</g>
<g>
	<g>
		<rect x="304.254" y="269.417" width="15.679" height="24.02"/>
	</g>
</g>
<g>
	<g>
		<rect x="304.254" y="229.373" width="15.679" height="24.02"/>
	</g>
</g>
<g>
	<g>
		<rect x="144.121" y="229.373" width="15.679" height="24.02"/>
	</g>
</g>
<g>
	<g>
		<rect x="175.98" y="197.513" width="32.028" height="15.679"/>
	</g>
</g>
<g>
	<g>
		<rect x="79.9" y="269.574" width="16.013" height="15.679"/>
	</g>
</g>
<g>
	<g>
		<rect x="47.874" y="269.574" width="16.012" height="15.679"/>
	</g>
</g>
<g>
	<g>
		<rect x="48.04" y="301.433" width="15.679" height="16.013"/>
	</g>
</g>
<g>
</g>
<g>
</g>
<g>
</g>
<g>
</g>
<g>
</g>
<g>
</g>
<g>
</g>
<g>
</g>
<g>
</g>
<g>
</g>
<g>
</g>
<g>
</g>
<g>
</g>
<g>
</g>
<g>
</g>
</svg>
