<svg id="Capa_1" enable-background="new 0 0 512 512" height="512" viewBox="0 0 512 512" width="512" xmlns="http://www.w3.org/2000/svg"><g id="XMLID_106_"><path id="XMLID_129_" d="m256 164.612c-50.392 0-91.389 40.997-91.389 91.388s40.997 91.388 91.389 91.388 91.389-40.997 91.389-91.388-40.997-91.388-91.389-91.388zm0 152.776c-33.85 0-61.389-27.539-61.389-61.388s27.539-61.388 61.389-61.388 61.389 27.538 61.389 61.388-27.539 61.388-61.389 61.388z"/><path id="XMLID_132_" d="m437.02 74.98c-48.353-48.351-112.64-74.98-181.02-74.98s-132.667 26.629-181.02 74.98c-48.351 48.353-74.98 112.64-74.98 181.02s26.629 132.667 74.98 181.02c48.353 48.351 112.64 74.98 181.02 74.98s132.667-26.629 181.02-74.98c48.351-48.353 74.98-112.64 74.98-181.02s-26.629-132.667-74.98-181.02zm-181.02-44.98c73.083 0 138.163 34.88 179.501 88.856-19.524 1.674-47.668-12.073-73.142-24.524-18.918-9.247-36.787-17.98-52.622-21.479-39.396-8.702-58.837 3.207-81.35 16.997-13.625 8.345-29.067 17.805-53.323 25.522-35.326 11.239-73.141 8.051-98.532 3.441 41.339-53.951 106.404-88.813 179.468-88.813zm0 452c-124.617 0-226-101.383-226-226 0-39.962 10.44-77.526 28.714-110.132 15.432 3.504 37.682 7.226 62.635 7.226 19.927 0 41.574-2.376 62.811-9.133 27.726-8.822 45.564-19.749 59.897-28.528 20.397-12.494 31.636-19.377 59.207-13.285 12.345 2.727 28.654 10.699 45.922 19.138 19.29 9.428 39.237 19.178 58.62 24.248 17.724 4.637 32.696 4.659 45.322.051 18.372 32.671 28.872 70.337 28.872 110.415 0 124.617-101.383 226-226 226z"/><path id="XMLID_134_" d="m57.36 226.5h85.28v29.999h-85.28z" transform="matrix(.145 -.99 .99 .145 -153.43 305.497)"/><path id="XMLID_135_" d="m235.155 371.499h30v85.279h-30z" transform="matrix(.745 -.668 .668 .745 -212.581 272.844)"/><path id="XMLID_136_" d="m397.984 241.882h30v85.28h-30z" transform="matrix(.988 -.158 .158 .988 -39.666 68.613)"/><path id="XMLID_138_" d="m128 337c-7.846 0-15.363 6.899-15 15 .364 8.127 6.591 15 15 15 7.846 0 15.363-6.899 15-15-.364-8.127-6.591-15-15-15z"/><path id="XMLID_139_" d="m355 359c-7.846 0-15.363 6.899-15 15 .364 8.127 6.591 15 15 15 7.846 0 15.363-6.899 15-15-.364-8.127-6.591-15-15-15z"/><path id="XMLID_140_" d="m406 175.875c-.364-8.127-6.591-15-15-15-7.846 0-15.363 6.899-15 15 .364 8.127 6.591 15 15 15 7.846 0 15.363-6.9 15-15z"/></g></svg>