<?xml version="1.0" encoding="utf-8"?>
<!-- Generator: Adobe Illustrator 22.1.0, SVG Export Plug-In . SVG Version: 6.00 Build 0)  -->
<svg version="1.1" xmlns="http://www.w3.org/2000/svg" xmlns:xlink="http://www.w3.org/1999/xlink" x="0px" y="0px"
	 viewBox="0 0 363 75" style="enable-background:new 0 0 363 75;" xml:space="preserve">
<style type="text/css">
	.st0{font-family:'ChangaOne';}
	.st1{font-size:41.0357px;}
	.st2{fill:#479CAA;}
	.st3{fill:#413D4C;}
	.st4{fill:#615A6F;}
	.st5{fill:#332E3B;}
	.st6{fill:#7B7485;}
	.st7{fill:#504A5C;}
</style>
<g id="Capa_1">
	<text transform="matrix(1 0 0 1 98.2794 48.0692)" class="st0 st1">HORIZON ZOO</text>
</g>
<g id="OBJECTS">
	<g>
		<g>
			<path class="st2" d="M85.1,68.2c0,2.4-16.7,4.3-37.2,4.3c-20.6,0-37.2-1.9-37.2-4.3c0-2.4,16.7-4.3,37.2-4.3
				C68.4,63.9,85.1,65.8,85.1,68.2z"/>
			<g>
				<path class="st3" d="M42.8,46.4c0,0-0.2,4.2-1.3,5.4c0,0,1.5,1.5,0.7,5l-1.4,7.5c0,0,3.6,1.4,4.7,3.4c0,0-9.2,1.3-15.5-0.4
					c0,0,0.8-3.7,1-8.9l-1.9-6.2l1.9-4.5l2.5-3.8l3.4-2.9l2.1-0.4L42.8,46.4z"/>
				<path class="st4" d="M46.5,25.2c0,0-12.4-4.9-18.8,3.7c0,0-2.1,2.3-2.6,4.1c0,0-3.1,1.7-3,4.2c0,0-3.4,8-2,15.8l0,1.7
					c0,0-0.2,2.3-1.7,4.1c0,0-2,6.6-1.8,10c0,0,5.3,2.4,13.4,0.7c0,0-0.7-2.4-2.6-2.7c0,0,1.3-4.5,3-6.5c0,0,0.9-1.5,1.1-5.1
					c0,0,5.4-7,5.6-11c0,0,10.3,6.8,20.4-1.8c0,0,3.8-1.7,5.6-3.3c0,0-2.3,3.5-4.4,4.9c0,0,1,0.8,1.6,0.7c0,0-2.2,0.8-2.4,2.2
					c0,0,1.5-0.9,2.6-0.9c0,0-0.8,0.3-2,1.6c0,0,2.1-0.8,3.1,0c0,0-1.6,0.8-2.4,0.8c0,0,1.3,0.9,2.3,0.7c0,0-2.6,1.5-2.8,2.9
					c0,0,1.8-1.4,2.7-1.4l-2.9,2.5l1.8-0.7l-2,2l2.9-1.1l-3.1,2.7l2.4-0.9l-1.4,1.5l1.4-0.1c0,0-1,0.9-1.5,2c0,0,1.4-0.8,2.1-0.8
					c0,0-1.2,1.9-1.8,2.2c0,0,1.4,0.1,1.9,0c0,0-0.8,0.9-1.3,1.1c0,0,1.2-0.1,2.3-0.2l-1.6,1.5l3.6-0.6l-1.5,2.6
					c0,0-0.7,1.5-0.2,2.8c0,0-1.1-0.1-1.3,1.1c0,0,0.6,1.8,5.5,0.4c0,0,7.5,1.2,9.5-3.9c0,0,1.5-4.8,0.3-10.7c0,0,1.2,0.1,2,1
					c0,0-0.6-2.2-1.5-2.6l2,0.8l-1.2-1.9l0.9,0l-0.5-1.5c0,0,2.9,0.4-0.4-8.2l1.2,0.9L77,39.3c0,0,0.8-8.4-0.1-12.5
					c0,0,9.1,1.3,5.8-7.7c0,0,0.3-1.4,1-2.7c0,0,2.2-1-0.3-2.7L83,11.9c0,0-1.6-4.4-5-7.1c0,0-0.7-1.7-2.5-2.2l0.2,0.6l-1-0.8
					l0.1,0.7c0,0-1.4-1.3-3.3-0.9L72,2.7c0,0-1.5,0.1-2.1,0.9l0.4,0.1l-0.9,0.5l0.9,0.6c0,0-3.2,0.1-6.1,4.9c0,0-4.6,1.8-7.1,6.2
					c0,0-3.4,2.7-4.6,6.3C52.6,22.3,48.5,25.2,46.5,25.2z"/>
				<path class="st3" d="M77.5,51.5l0.9,0l-0.5-1.5c0,0,2.9,0.4-0.4-8.2l1.2,0.9L77,39.3c0,0,0.8-8.4-0.1-12.5c0,0-0.4-0.2-0.8-0.5
					c1-12.3-8.6-11-8.6-11c8.6,0.7,7.8,10.2,7.8,10.2s0.3,11-3.4,14.5c0,0,4.5,5.4,2.9,12.5l-0.6-0.8c0,0,0,5-1.2,7
					c0,0,0.9,6.3-0.5,9.4c1.4-0.6,2.7-1.6,3.4-3.2c0,0,1.5-4.8,0.3-10.7c0,0,1.2,0.1,2,1c0,0-0.6-2.2-1.5-2.6l2,0.8L77.5,51.5z"/>
				<g>
					<g>
						<path class="st5" d="M73.9,11.1c0,0.3,0,0.6,0,0.8c-0.2-0.3-0.6-0.6-1.3-0.6c0,0-1.4-0.1-1.6,1.8c0,0-0.2,1.3,1.5,1.9
							c0,0-1.2-0.8-0.8-2.2c0,0,0.5-1.2,1.4-0.7c-0.4,0-0.7,0.4-0.8,0.8c0,0.4,0.3,0.8,0.8,0.8c0,0,0.1,0,0.1,0
							c-0.4,0.4-0.7,0.5-0.7,0.5c1.3-0.1,1.7-0.9,1.7-1.7l0,0c0,0,0,0,0,0C74.2,11.8,73.9,11.1,73.9,11.1z"/>
						<path class="st5" d="M81.6,16.1c-0.1,0-0.2-0.1-0.2-0.2c0,1.3-1.6,1.2-1.6,1.2c-1.3-0.1-1-1.1-1-1.1l0,0
							c-0.3,0-0.6-0.1-0.9-0.2c0,0,2.5,0.2,3.6-0.3c0,0,1,0.7,2.8,0.5v0l0,0c-0.3,0.3-0.6,0.4-0.6,0.4c-0.2,0.3-0.3,0.6-0.4,0.9h0
							C81.6,17.3,81.6,16.5,81.6,16.1z"/>
						<g>
							<path class="st6" d="M82.9,16.8c0,0.1,0.1,0.2,0.2,0.2c0.1,0,0.2-0.1,0.2-0.2c0-0.1-0.1-0.2-0.2-0.2
								C83,16.5,82.9,16.6,82.9,16.8z"/>
						</g>
						<g>
							<path class="st6" d="M80.4,16.4c0,0.1,0.1,0.2,0.2,0.2c0.1,0,0.2-0.1,0.2-0.2c0-0.1-0.1-0.2-0.2-0.2
								C80.5,16.2,80.4,16.3,80.4,16.4z"/>
						</g>
						<path class="st5" d="M78.9,18.9c0,0-0.1,1.4,1.4,2.2c0.3,0.8,1.3,1.1,1.3,1.1c-1.4-1-1.1-2.9-1.1-2.9c-0.3,0.5-0.3,1-0.3,1.4
							C79.9,20.4,79.3,20,78.9,18.9z"/>
						<path class="st5" d="M81.8,21.6c0.2,0,0.4-0.2,0.4-0.5l0.9,0.1c0-0.1,0-0.2-0.1-0.4l-0.9,0c-0.1-0.3-0.3-0.6-0.5-0.6
							c-0.3,0-0.5,0.4-0.5,0.8C81.3,21.3,81.6,21.6,81.8,21.6z"/>
						<path class="st5" d="M79.3,24.4c0-0.1,0-0.2,0-0.3c0,0-0.3,0.4,0.1,0.7C79.5,24.8,79.4,24.7,79.3,24.4c0.4,0,2.5-0.2,3.5,0.3
							c0.1-0.1,0.1-0.3,0.2-0.4C82.4,24.1,80.9,23.9,79.3,24.4z"/>
					</g>
				</g>
				<path class="st3" d="M46.5,25.2c0,0-12.4-4.9-18.8,3.7c0,0-2.1,2.3-2.6,4.1C25.1,32.9,29.3,22.2,46.5,25.2z"/>
				<path class="st3" d="M33.2,37c4.2,2.8,4,7.3,4,7.3s0.5,0.3,1.4,0.8C38.3,37.8,33.2,37,33.2,37z"/>
				<g>
					<polygon class="st7" points="62.9,39.4 62.9,39.4 62.9,39.4 					"/>
					<path class="st3" d="M61.6,29.3c0,0-0.4,0.6-0.7,1.7c-2.4-2.1-2.2-5.3-2.2-5.3c-0.8,3.4,1.3,5.6,2,6.2
						c-0.3,1.8-0.3,4.5,1.3,8.1l0,0c0.3-0.2,0.6-0.4,0.8-0.6C62.6,38.7,60.5,34.1,61.6,29.3z"/>
				</g>
				<path class="st7" d="M19.8,55.8c0,0,1.6-1.7,1.4-4.2c0,0-0.5,1.5-1.1,2.6l0,0.5C20.1,54.7,20,55.2,19.8,55.8L19.8,55.8z"/>
				<path class="st6" d="M54.3,30.5c-2.6-4.3-1.7-8.2-1.7-8.2s-4.1,2.8-6.1,2.8c-6.8,2.3-5.6,12.6-5.6,12.6C40,37.3,39,36.2,39,36.2
					c0.3,1.8,1.1,3,1.1,3c5.4,6.1,10.9,3.4,10.9,3.4c4.1-1.7,1.8-13.1,1.8-13.1C53.1,29.9,54.3,30.5,54.3,30.5z"/>
			</g>
		</g>
	</g>
</g>
<g id="Layer_1">
</g>
</svg>
