<?xml version="1.0" encoding="utf-8"?>
<!-- Generator: Adobe Illustrator 22.1.0, SVG Export Plug-In . SVG Version: 6.00 Build 0)  -->
<svg version="1.1" xmlns="http://www.w3.org/2000/svg" xmlns:xlink="http://www.w3.org/1999/xlink" x="0px" y="0px"
	 viewBox="0 0 363 75" style="enable-background:new 0 0 363 75;" xml:space="preserve">
<style type="text/css">
	.st0{font-family:'ChangaOne';}
	.st1{font-size:41.0357px;}
	.st2{fill:#FFEBD2;}
	.st3{fill:#FFA54B;}
	.st4{fill:#FF8C46;}
	.st5{fill:#FFDEB7;}
	.st6{fill:#464655;}
</style>
<g id="Capa_1">
	<text transform="matrix(1 0 0 1 91.9995 48.0693)" class="st0 st1">HORIZON ZOO</text>
</g>
<g id="Layer_1">
	<path class="st2" d="M53.5,64.9c0,3.6-2.6,6.5-9.8,6.5c-7.2,0-9.8-2.9-9.8-6.5"/>
	<path class="st3" d="M70.8,4.2c-3.8,0-7.1,7.7-12.1,8.6c-3.8-2-8.6-3.2-15-3.2c-6.3,0-11.2,1.2-15,3.2c-5-0.8-8.3-8.6-12.1-8.6
		c-4.5,0-6.6,8.9-1.1,11.9c2.9,1.6,5.1,1.7,6.4,2.4c-1.3,1.9-2.3,4.1-3.1,6.4c-1.6,3.2-2.5,6.9-2.5,10.7c0,14.1,12.1,25.5,27.1,25.5
		c14.2,0,25.8-10.3,27-23.3h0.4c0-6.2-1-13.6-5.3-19.3c1.3-0.7,3.4-0.9,6.3-2.4C77.4,13.2,75.3,4.2,70.8,4.2z"/>
	<g>
		<path class="st4" d="M28.1,12.6c-3.5-0.5-8.4-10.2-13-8.1c-0.6,0.3-3.6,3.3-2.6,7.5c1.1,4.2,4.2,4.7,9.4,6.6L28.1,12.6z"/>
		<path class="st4" d="M59.3,12.6c3.5-0.5,8.4-10.2,13-8.1c0.6,0.3,3.6,3.3,2.6,7.5s-4.2,4.7-9.4,6.6L59.3,12.6z"/>
	</g>
	<g>
		<path class="st2" d="M17.5,28.9c-4.4,7.3-5.2,13.2-5.2,13.2h2.2c0,0-2.2,5.4-2.2,8.7l3.3-1.1c0,0-2.2,4.9-2.2,8.7
			c0,0.1,3.3-1.1,3.3-1.1S15,61,15.6,62.7c0,0.1,3.3-1.1,3.3-1.1s-0.9,2.5,0,4.3l5.4-2.2c0,0,1,3.3,1.1,3.3c2.4-2.2,5.4-3.3,5.4-3.3
			"/>
		<path class="st2" d="M70,28.9c4.4,7.3,5.2,13.2,5.2,13.2H73c0,0,2.2,5.4,2.2,8.7l-3.3-1.1c0,0,2.2,4.9,2.2,8.7
			c0,0.1-3.3-1.1-3.3-1.1s1.6,3.7,1.1,5.4c0,0.1-3.3-1.1-3.3-1.1s0.9,2.5,0,4.3l-5.4-2.2c0,0-1,3.3-1.1,3.3
			c-2.4-2.2-5.4-3.3-5.4-3.3"/>
	</g>
	<path class="st4" d="M35.3,37.8c-4.1,5.8-7.8,13.8-7.8,19c0,4.5,3.6,8.1,8.1,8.1c1.5,0,6.6-0.2,8.1-2.2c1.5,2,6.3,2.2,8.1,2.2
		c4.5,0,8.1-3.6,8.1-8.1c0-5.2-3.8-13.1-7.9-19"/>
	<path class="st5" d="M50.2,51.6c-2.5,0-4.8,0.8-6.4,2c-1.6-1.2-3.9-2-6.4-2c-4.9,0-8.8,2.9-8.8,6.5c0,3.6,3.9,6.5,8.8,6.5
		c2,0,3.9-0.5,5.4-1.4c0.6-0.4,1.3-0.4,2,0c1.5,0.9,3.4,1.4,5.4,1.4c4.9,0,8.8-2.9,8.8-6.5C59,54.5,55.1,51.6,50.2,51.6z"/>
	<path class="st6" d="M46.6,58.1c-1.8,1.7-4,1.7-5.7,0L39,56.2c-1.6-1.8-0.9-3.3,1.5-3.3H47c2.4,0,3.1,1.5,1.5,3.3L46.6,58.1z"/>
	<g>
		<ellipse transform="matrix(0.7968 -0.6042 0.6042 0.7968 -15.316 25.9929)" class="st2" cx="31" cy="35.8" rx="6" ry="4.9"/>
		<ellipse transform="matrix(0.6042 -0.7968 0.7968 0.6042 -6.0755 59.3107)" class="st2" cx="56.7" cy="35.8" rx="4.9" ry="6"/>
	</g>
	<path d="M30.7,33.5c-1.2,0-2.2,1-2.2,2.2c0,1.2,1,2.2,2.2,2.2c1.2,0,2.2-1,2.2-2.2C32.9,34.5,31.9,33.5,30.7,33.5z"/>
	<path d="M56.8,33.5c-1.2,0-2.2,1-2.2,2.2c0,1.2,1,2.2,2.2,2.2c1.2,0,2.2-1,2.2-2.2C58.9,34.5,58,33.5,56.8,33.5z"/>
	<path d="M74.6,43.2h0.6c0.3,0,0.6-0.1,0.8-0.4c0.2-0.2,0.3-0.5,0.3-0.8c0-0.3-0.8-6.2-5.2-13.5c-0.8-3.6-2-6.8-3.8-9.4
		c0.2-0.1,0.4-0.1,0.6-0.2c1.2-0.4,2.7-0.8,4.5-1.8c3.6-1.9,4.4-5.9,3.6-9c-0.8-3-2.8-4.9-5.2-4.9c-2.3,0-4.2,2-6.3,4.2
		c-1.8,1.9-3.6,3.8-5.7,4.4c-4.1-2.1-9.2-3.1-15.1-3.1c-5.9,0-11,1-15.1,3.1c-2.1-0.5-3.9-2.5-5.7-4.4c-2-2.1-3.9-4.2-6.3-4.2
		c-2.4,0-4.5,1.9-5.2,4.9c-0.8,3.1,0,7.1,3.6,9c1.8,1,3.3,1.4,4.5,1.8c0.3,0.1,0.5,0.2,0.7,0.2c-1.7,2.7-2.8,5.9-3.6,9
		c-0.1,0.1-0.1,0.1-0.2,0.2C12,35.7,11.3,41.8,11.2,42c0,0.3,0.1,0.6,0.3,0.8c0.2,0.2,0.5,0.4,0.8,0.4h0.6c-0.7,1.9-1.7,5.2-1.7,7.6
		c0,0.3,0.2,0.7,0.5,0.9c0.3,0.2,0.6,0.3,1,0.1l1.1-0.4c-0.6,1.8-1.4,4.5-1.4,6.9c0,0.4,0.2,0.7,0.5,0.9c0.5,0.3,0.9,0.2,1.5,0
		c0.2-0.1,0.4-0.1,0.6-0.2c-0.4,1.3-0.7,2.8-0.3,4c0.1,0.3,0.3,0.5,0.6,0.7c0.4,0.2,0.8,0.1,1.4-0.1c0.2-0.1,0.5-0.2,0.9-0.3
		c-0.1,1,0,2.1,0.5,3.2c0.3,0.5,0.8,0.7,1.4,0.5l4.3-1.7c0.1,0.2,0.1,0.3,0.2,0.5c0.2,0.5,0.3,0.9,0.4,1.1c0.2,0.6,0.4,1.1,0.9,1.2
		c0.1,0,0.2,0,0.3,0c0.3,0,0.5-0.1,0.7-0.3c2.2-2,5-3,5.1-3c0,0,0,0,0,0c0.6,0.3,1.2,0.6,1.8,0.8c0.2,2,1,3.6,2.6,4.8
		c1.8,1.4,4.6,2.1,8.2,2.1c3.6,0,6.4-0.7,8.2-2.1c1.5-1.2,2.4-2.8,2.6-4.8c0.6-0.2,1.2-0.4,1.8-0.8c0,0,0,0,0,0c0,0,2.9,1,5.1,3
		c0.2,0.2,0.5,0.3,0.7,0.3c0.1,0,0.2,0,0.3,0c0.6-0.2,0.7-0.6,0.9-1.2c0.1-0.3,0.2-0.7,0.4-1.1c0.1-0.2,0.1-0.3,0.2-0.5l4.3,1.7
		c0.5,0.2,1.1,0,1.4-0.5c0.5-1,0.6-2.2,0.5-3.2c0.4,0.1,0.7,0.2,0.9,0.3c0.6,0.2,0.9,0.3,1.4,0.1c0.3-0.1,0.5-0.4,0.6-0.7
		c0.3-1.1,0.1-2.7-0.3-4c0.2,0.1,0.4,0.1,0.6,0.2c0.6,0.2,1,0.3,1.5,0c0.3-0.2,0.5-0.5,0.5-0.9c0-2.4-0.8-5.1-1.4-6.9l1.1,0.4
		c0.3,0.1,0.7,0.1,1-0.1c0.3-0.2,0.5-0.5,0.5-0.9C76.3,48.4,75.2,45.1,74.6,43.2z M43.8,70.3c-3.6,0-7.9-0.8-8.6-4.3
		c0.1,0,0.3,0,0.4,0c1.8,0,5.9-0.2,8.1-1.8c2.1,1.5,5.9,1.8,8.1,1.8c0.1,0,0.3,0,0.4,0C51.6,69.5,47.4,70.3,43.8,70.3z M41.7,57.4
		l-1.9-1.9c-0.5-0.6-0.6-1-0.6-1.1c0-0.1,0.4-0.3,1.2-0.3H47c0.8,0,1.2,0.2,1.2,0.3c0,0.1,0,0.5-0.6,1.1l-1.8,1.9
		C44.5,58.7,42.9,58.7,41.7,57.4z M72.3,48.7c-0.4-0.1-0.9,0-1.1,0.3c-0.3,0.3-0.4,0.8-0.2,1.2c0,0,1.5,3.5,2,6.7
		c-0.5-0.2-1.1-0.4-1.7-0.6c-0.4-0.1-0.9,0-1.2,0.3c-0.3,0.3-0.4,0.8-0.2,1.2c0.4,1,0.9,2.4,1.1,3.5c-0.6-0.2-1.2-0.4-1.9-0.7
		c-0.4-0.1-0.8,0-1.1,0.3c-0.3,0.3-0.4,0.7-0.2,1.1c0.2,0.4,0.4,1.5,0.3,2.5l-4.3-1.7c-0.3-0.1-0.6-0.1-0.9,0
		c-0.3,0.1-0.5,0.4-0.6,0.7c-0.2,0.6-0.4,1.2-0.6,1.8c-1.2-0.9-2.4-1.5-3.3-1.9c1.7-1.7,2.7-4,2.7-6.5c0-0.3,0-0.6,0-0.9
		c4.1-2.2,7.9-6.6,9.7-11.1c0.2-0.6-0.1-1.2-0.6-1.4c-0.6-0.2-1.2,0.1-1.4,0.6c-1.4,3.8-4.6,7.5-8,9.6c-1.1-5.2-4.4-11.7-7.7-16.3
		c-0.3-0.5-1-0.6-1.5-0.3c-0.5,0.3-0.6,1-0.3,1.5c3.7,5.3,7.7,13.2,7.7,18.3c0,3.9-3.2,7-7,7c-3.3,0-6-0.6-7-1.5v-2
		c0.9-0.2,1.7-0.7,2.5-1.4c0,0,0,0,0,0l1.9-1.9c0,0,0,0,0,0c1.4-1.6,1.2-2.9,0.9-3.5c-0.3-0.6-1-1.6-3.2-1.6h-6.5
		c-2.2,0-2.9,1-3.2,1.6c-0.3,0.6-0.5,1.8,0.9,3.5c0,0,0,0,0,0l1.9,1.9c0.8,0.8,1.6,1.3,2.5,1.5v1.9c-1.1,1-4.4,1.5-7,1.5
		c-3.9,0-7-3.2-7-7c0-5.2,3.8-12.9,7.6-18.3c0.3-0.5,0.2-1.2-0.3-1.5c-0.5-0.3-1.2-0.2-1.5,0.3c-3.3,4.7-6.6,11.1-7.7,16.3
		c-3.4-2.1-6.6-5.8-8.1-9.6c-0.2-0.6-0.8-0.8-1.4-0.6c-0.6,0.2-0.8,0.8-0.6,1.4c1.8,4.6,5.6,8.9,9.8,11.1c0,0.3,0,0.6,0,0.9
		c0,2.6,1,4.9,2.7,6.5c-0.9,0.4-2.1,1.1-3.3,1.9c-0.2-0.5-0.4-1.2-0.6-1.8c-0.1-0.3-0.3-0.5-0.6-0.7c-0.3-0.1-0.6-0.1-0.9,0
		l-4.3,1.7c-0.1-1,0.2-2.1,0.3-2.5c0.1-0.4,0.1-0.8-0.2-1.1c-0.3-0.3-0.7-0.4-1.1-0.3c-0.6,0.2-1.3,0.5-1.9,0.7
		c0.1-1.1,0.6-2.6,1.1-3.5c0.2-0.4,0.1-0.9-0.2-1.2c-0.3-0.3-0.7-0.4-1.2-0.3c-0.6,0.2-1.2,0.4-1.7,0.6c0.4-3.2,1.9-6.7,2-6.7
		c0.2-0.4,0.1-0.9-0.2-1.2c-0.3-0.3-0.7-0.4-1.1-0.3l-1.7,0.6c0.5-3,1.9-6.7,2-6.7c0.1-0.3,0.1-0.7-0.1-1c-0.2-0.3-0.5-0.5-0.9-0.5
		h-0.9c0.3-1.3,0.9-3.6,2.1-6.3c-0.1,1.1-0.1,2.1-0.1,3.1c0,0.6,0.5,1.1,1.1,1.1c0.6,0,1.1-0.5,1.1-1.1c0-6.8,2-14.1,5.1-18.6
		c0.2-0.2,0.2-0.6,0.2-0.9c-0.1-0.3-0.3-0.5-0.5-0.7c-0.6-0.4-1.4-0.6-2.3-0.8c-1.1-0.3-2.5-0.7-4.1-1.6c-2.5-1.4-3.1-4.3-2.5-6.6
		C14,7,15.1,5.3,16.7,5.3c1.4,0,3,1.7,4.7,3.5c1.4,1.5,2.9,3.1,4.7,4.1c-1,0.3-1.9,0.3-2.6,0c-0.6-0.2-1.2,0-1.4,0.6
		c-0.2,0.6,0,1.2,0.6,1.4c0.5,0.2,1.1,0.4,1.9,0.4c1.2,0,2.8-0.4,4.7-1.6c3.9-2,8.7-3,14.4-3c5.7,0,10.6,1,14.4,3
		c0.1,0.1,0.2,0.1,0.3,0.1c1.9,1.1,3.4,1.5,4.5,1.5c0.8,0,1.4-0.2,1.9-0.4c0.6-0.2,0.8-0.9,0.6-1.4c-0.2-0.6-0.9-0.8-1.4-0.6
		c-0.7,0.3-1.7,0.3-2.7-0.1c1.7-1,3.2-2.6,4.6-4.1c1.7-1.8,3.3-3.5,4.7-3.5c1.6,0,2.7,1.7,3.1,3.3c0.6,2.3,0,5.2-2.5,6.6
		c-1.6,0.9-3,1.3-4.1,1.6c-0.8,0.3-1.6,0.5-2.2,0.8c-0.3,0.2-0.5,0.4-0.5,0.7c-0.1,0.3,0,0.6,0.2,0.9c3.4,4.5,5.1,10.7,5.1,18.6
		c0,0.6,0.5,1.1,1.1,1.1c0.6,0,1.1-0.5,1.1-1.1c0-1,0-2-0.1-3c1.2,2.7,1.8,4.9,2,6.2H73c-0.4,0-0.7,0.2-0.9,0.5
		c-0.2,0.3-0.2,0.7-0.1,1c0,0,1.5,3.7,2,6.7L72.3,48.7z"/>
	<path d="M31.8,17.3c0.2,0,0.3,0,0.5-0.1c2.9-1.3,7.1-2.1,11.5-2.1c4.4,0,8.6,0.8,11.5,2.1c0.5,0.3,1.2,0,1.4-0.5s0-1.2-0.5-1.4
		c-3.2-1.5-7.7-2.3-12.4-2.3c-4.7,0-9.2,0.8-12.4,2.3c-0.5,0.3-0.8,0.9-0.5,1.4C31,17,31.4,17.3,31.8,17.3z"/>
	<path d="M55.1,19.6c-2.9-1.5-7-2.3-11.3-2.3c-4.3,0-8.4,0.8-11.3,2.3c-0.5,0.3-0.7,0.9-0.5,1.5c0.2,0.4,0.6,0.6,1,0.6
		c0.2,0,0.3,0,0.5-0.1c2.6-1.3,6.4-2.1,10.3-2.1s7.7,0.8,10.3,2.1c0.5,0.3,1.2,0.1,1.5-0.5C55.8,20.5,55.6,19.8,55.1,19.6z"/>
	<path d="M54,23.9c-2.6-1.5-6.4-2.4-10.3-2.4c-3.9,0-7.7,0.9-10.3,2.4c-0.5,0.3-0.7,1-0.4,1.5c0.3,0.5,1,0.7,1.5,0.4
		c2.3-1.3,5.7-2.1,9.2-2.1c3.5,0,6.9,0.8,9.2,2.1c0.2,0.1,0.4,0.1,0.5,0.1c0.4,0,0.7-0.2,0.9-0.5C54.7,24.9,54.6,24.2,54,23.9z"/>
	<path d="M22.1,36.8c0-0.6-0.5-1.1-1.1-1.1c-0.6,0-1.1,0.5-1.1,1.1C19.8,41.5,21,44,22.2,46c0.2,0.3,0.6,0.5,0.9,0.5
		c0.2,0,0.4-0.1,0.6-0.2c0.5-0.3,0.7-1,0.4-1.5C23,43.1,22,41,22.1,36.8z"/>
	<path d="M66.5,35.7c-0.6,0-1.1,0.5-1.1,1.1c0.1,4.2-0.9,6.3-2,8.1c-0.3,0.5-0.1,1.2,0.4,1.5c0.2,0.1,0.4,0.2,0.6,0.2
		c0.4,0,0.7-0.2,0.9-0.5c1.2-2,2.5-4.5,2.3-9.3C67.6,36.1,67.1,35.6,66.5,35.7z"/>
	<path d="M26.5,28.4c-1.2-1.7-2.9-4.2-2.4-5.2c0.3-0.5,0.1-1.2-0.5-1.5c-0.5-0.3-1.2-0.1-1.5,0.5c-1.1,2.2,0.8,5,2.6,7.5
		c0.7,0.9,1.6,2.3,1.7,2.8c0,0.6,0.5,1.1,1.1,1.1c0.6,0,1.1-0.5,1.1-1.1C28.6,31.3,27.7,30,26.5,28.4z"/>
	<path d="M65.1,22.1c-0.3-0.5-0.9-0.7-1.5-0.5c-0.5,0.3-0.7,0.9-0.5,1.5c0.5,1-1.2,3.5-2.4,5.2c-1.1,1.6-2,2.9-2,4
		c0,0.6,0.5,1.1,1.1,1.1c0.6,0,1.1-0.5,1.1-1.1c0-0.4,1-1.9,1.7-2.8C64.3,27.1,66.2,24.3,65.1,22.1z"/>
</g>
</svg>
