<?xml version="1.0" encoding="utf-8"?>
<!-- Generator: Adobe Illustrator 21.1.0, SVG Export Plug-In . SVG Version: 6.00 Build 0)  -->
<svg version="1.1" id="Capa_1" xmlns="http://www.w3.org/2000/svg" xmlns:xlink="http://www.w3.org/1999/xlink" x="0px" y="0px"
	 viewBox="0 0 363 75" style="enable-background:new 0 0 363 75;" xml:space="preserve">
<style type="text/css">
	.st0{font-family:'ChangaOne';}
	.st1{font-size:41.0357px;}
</style>
<g>
	<g>
		<path d="M58.7,5.5c4.6,3.7,7.7,9,8.6,15.1c5.3-2.4,9-7.7,9-13.9V0L58.7,5.5z"/>
	</g>
</g>
<g>
	<g>
		<polygon points="39.2,25.6 32.8,41.4 36.2,48.1 42.2,48.1 45.5,41.4 		"/>
	</g>
</g>
<g>
	<g>
		<path d="M66.5,55.9l-2-14.9c-0.9-5.5-1.4-11.2-1.4-16.9c0-10.8-8.8-19.6-19.6-19.6h-8.7c-10.8,0-19.6,8.8-19.6,19.6v0.1
			c0,5.6-0.5,11.3-1.4,16.9l-2,14.8c-0.7,5.2,2.4,10.1,7.3,11.8l5.8,1.9c3.1,2.9,7.4,4.8,11.7,4.8h5.1c4.3,0,8.5-1.8,11.7-4.8
			l5.8-1.9C64.1,66,67.2,61.1,66.5,55.9z M23.9,43.7h-4.4v-4.4h4.4V43.7z M32.6,63.3c0-1.2-1-2.2-2.2-2.2v-4.4
			c3.6,0,6.5,2.9,6.5,6.5H32.6z M47.9,61.1c-1.2,0-2.2,1-2.2,2.2h-4.4c0-3.6,2.9-6.5,6.5-6.5V61.1z M44.9,52.4H33.5l-5.4-10.8
			l11.1-27.7l11.1,27.7L44.9,52.4z M58.8,43.7h-4.4v-4.4h4.4V43.7z"/>
	</g>
</g>
<g>
	<g>
		<path d="M2,0v6.7c0,6.2,3.7,11.5,9,13.9c0.9-6.1,4.1-11.4,8.7-15.1L2,0z"/>
	</g>
</g>
<text transform="matrix(1 0 0 1 91.9995 48.0693)" class="st0 st1">HORIZON ZOO</text>
</svg>
